<?xml version="1.0" encoding="utf-8"?><svg xmlns="http://www.w3.org/2000/svg" xmlns:xlink="http://www.w3.org/1999/xlink"><symbol viewBox="0 0 25 25" id="Icon_closed" xmlns="http://www.w3.org/2000/svg"><path fill-rule="evenodd" clip-rule="evenodd" d="M12.48 3.497a5 5 0 00-5 5v1h-1a2 2 0 00-2 2v8a2 2 0 002 2h12a2 2 0 002-2v-8a2 2 0 00-2-2h-1v-1a5 5 0 00-5-5zm-3 5v1h6v-1a3 3 0 10-6 0zm3 9a2 2 0 100-4 2 2 0 000 4z"/></symbol><symbol viewBox="0 0 19 19" id="Union" xmlns="http://www.w3.org/2000/svg"><path fill-rule="evenodd" clip-rule="evenodd" d="M11.672 13.104a7 7 0 111.414-1.414l5.172 5.171a1 1 0 01-1.414 1.414l-5.172-5.171zm.808-5.607a5 5 0 11-10 0 5 5 0 0110 0z"/></symbol><symbol viewBox="0 0 23 18" id="Union1" xmlns="http://www.w3.org/2000/svg"><path fill-rule="evenodd" clip-rule="evenodd" d="M8.574.563a1.064 1.064 0 011.536 0 1.141 1.141 0 010 1.581L6.4 5.961h10.226l-3.709-3.817a1.142 1.142 0 010-1.581 1.064 1.064 0 011.536 0l4.609 4.743c.178.184.282.416.31.655h1.678c.685 0 1.2.646 1.065 1.338l-2.824 8.945a1.095 1.095 0 01-1.065.899H4.8c-.517 0-.963-.377-1.065-.9L.912 7.3c-.134-.692.38-1.338 1.065-1.338h1.678c.029-.239.132-.47.31-.655L8.574.563zm-2.49 8.194c0-.309.242-.56.542-.56.3 0 .543.251.543.56v5.59a.551.551 0 01-.543.56c-.3 0-.543-.25-.543-.56v-5.59zm3.258 0c0-.309.243-.56.543-.56.3 0 .543.251.543.56v5.59a.551.551 0 01-.543.56c-.3 0-.543-.25-.543-.56v-5.59zm3.801-.56c-.3 0-.543.251-.543.56v5.59c0 .31.243.56.543.56.3 0 .543-.25.543-.56v-5.59a.551.551 0 00-.543-.56zm2.716.56c0-.309.243-.56.543-.56.3 0 .543.251.543.56v5.59a.551.551 0 01-.543.56c-.3 0-.543-.25-.543-.56v-5.59z"/></symbol><symbol viewBox="0 0 13 14" id="available-icon" xmlns="http://www.w3.org/2000/svg"><path d="M9.411 4.38a.698.698 0 11.988.987L6.208 9.558a.699.699 0 01-.988 0L2.89 7.23a.699.699 0 01.988-.988l1.835 1.835L9.41 4.379z"/></symbol><symbol viewBox="0 0 23 33" id="buttonUp" xmlns="http://www.w3.org/2000/svg"><path d="M12.661 1.22a1.5 1.5 0 00-2.121 0L.994 10.766a1.5 1.5 0 102.121 2.121l8.486-8.485 8.485 8.485a1.5 1.5 0 102.121-2.121L12.661 1.22zm.44 31.344V2.28h-3v30.284h3z"/></symbol><symbol viewBox="0 0 17.9 17.6" id="corrected" xmlns="http://www.w3.org/2000/svg"><path d="M10.1 10.5l2.1.5.4-1.6.8-.2 1 1.5 1.8-1.2-1-1.5.5-.7 1.7.4.5-2.1-1.7-.4-.2-.8 1.5-1-1.2-1.8-1.5 1-.7-.5.4-1.6-2.1-.5-.4 1.6-.9.1-.9-1.5-1.8 1.3.9 1.5-.4.6-1.6-.3-.5 2.1 1.6.3.2.9-1.5.9 1.2 1.8 1.5-.9.7.5-.4 1.6zm.2-5.5c.2-1.1 1.3-1.8 2.4-1.5 1.1.2 1.8 1.3 1.5 2.4-.2 1.1-1.3 1.8-2.4 1.5-1.1-.2-1.7-1.3-1.5-2.4z"/><path d="M3.3 17.2l2.1.4.3-1.6.8-.2 1 1.5 1.8-1.2-1-1.5.5-.6 1.7.4.5-2.1-1.7-.4-.1-.8 1.5-1-1.2-1.8-1.5 1-.7-.5.4-1.6-2.1-.5-.4 1.6-.8.2-1-1.5-1.8 1.2.9 1.5-.5.6L.5 10 0 12.1l1.6.3.2.9-1.5.9L1.5 16l1.5-.9.7.5-.4 1.6zm.2-5.5c.2-1.1 1.3-1.8 2.4-1.5 1.1.2 1.8 1.3 1.5 2.4-.2 1.1-1.3 1.8-2.4 1.5-1.1-.2-1.8-1.3-1.5-2.4z"/></symbol><symbol viewBox="0 0 17 12" id="eye" xmlns="http://www.w3.org/2000/svg"><path d="M8.436.364c-3.636 0-6.742 2.261-8 5.454 1.258 3.193 4.364 5.455 8 5.455s6.742-2.262 8-5.455c-1.258-3.193-4.364-5.454-8-5.454zm0 9.09A3.638 3.638 0 014.8 5.819a3.638 3.638 0 013.636-3.636 3.638 3.638 0 013.636 3.636 3.638 3.638 0 01-3.636 3.637zm0-5.818a2.179 2.179 0 00-2.182 2.182C6.254 7.025 7.23 8 8.436 8a2.179 2.179 0 002.182-2.182 2.179 2.179 0 00-2.182-2.182z"/></symbol><symbol viewBox="0 0 10 23" id="facebook" xmlns="http://www.w3.org/2000/svg"><path d="M9.579 11.634h-2.93v10.858H2.215V11.634H.105V7.82h2.11V5.35c0-1.764.827-4.53 4.476-4.53l3.285.015V4.54H7.592c-.392 0-.942.199-.942 1.04v2.244h3.315l-.386 3.81z"/></symbol><symbol viewBox="0 0 25 25" id="icon_menu" xmlns="http://www.w3.org/2000/svg"><path d="M3.905 6.808a1 1 0 011-1h16a1 1 0 110 2h-16a1 1 0 01-1-1zM3.905 12.808a1 1 0 011-1h16a1 1 0 110 2h-16a1 1 0 01-1-1zM4.905 17.808a1 1 0 100 2h16a1 1 0 100-2h-16z"/></symbol><symbol viewBox="0 0 18 18" id="instagram" xmlns="http://www.w3.org/2000/svg"><g clip-path="url(#jclip0)"><path d="M13.287.388H5.67a4.697 4.697 0 00-4.691 4.69v7.618a4.696 4.696 0 004.691 4.69h7.617a4.697 4.697 0 004.692-4.69V5.079a4.697 4.697 0 00-4.69-4.691zm3.183 12.309a3.186 3.186 0 01-3.184 3.182H5.67a3.186 3.186 0 01-3.183-3.182V5.079A3.186 3.186 0 015.67 1.896h7.617a3.187 3.187 0 013.184 3.183v7.618z"/><path d="M9.478 4.508a4.385 4.385 0 00-4.38 4.38 4.385 4.385 0 004.38 4.38 4.385 4.385 0 004.38-4.38 4.385 4.385 0 00-4.38-4.38zm0 7.252a2.875 2.875 0 01-2.872-2.872 2.875 2.875 0 012.872-2.872 2.875 2.875 0 012.872 2.872 2.875 2.875 0 01-2.872 2.872zM14.042 3.229a1.11 1.11 0 00-1.106 1.106c0 .29.119.576.325.782.205.205.49.324.781.324.292 0 .576-.119.783-.324a1.111 1.111 0 000-1.565 1.11 1.11 0 00-.783-.323z"/></g><defs><clipPath id="jclip0"><path transform="translate(.978 .388)" d="M0 0h17v17H0z"/></clipPath></defs></symbol><symbol viewBox="0 0 22 19" id="mail" xmlns="http://www.w3.org/2000/svg"><g clip-path="url(#kclip0)"><path d="M2.092 6.337c.265.205 1.066.812 2.402 1.822s2.36 1.787 3.07 2.333c.078.06.245.19.498.39.254.2.465.362.633.486.168.123.371.262.61.415.238.153.463.269.674.345.21.077.406.115.585.115h.024c.18 0 .375-.038.586-.115.211-.076.436-.192.674-.345.238-.153.441-.292.61-.415.168-.124.379-.286.633-.486.253-.2.42-.33.498-.39l5.484-4.155a5.857 5.857 0 001.43-1.573c.383-.613.574-1.257.574-1.93 0-.562-.185-1.044-.557-1.444-.372-.4-.812-.6-1.32-.6H1.95c-.6 0-1.063.22-1.388.664-.324.443-.486.997-.486 1.662 0 .537.215 1.119.644 1.745.43.626.887 1.119 1.372 1.476z"/><path d="M19.904 7.705c-2.562 1.892-4.508 3.362-5.836 4.41-.445.358-.807.638-1.084.838-.278.2-.647.405-1.107.613-.461.21-.89.313-1.29.313h-.023c-.399 0-.828-.104-1.289-.313a6.51 6.51 0 01-1.107-.613c-.278-.2-.639-.48-1.084-.838-1.055-.843-2.997-2.314-5.825-4.41A6.41 6.41 0 01.076 6.593v10.15c0 .563.183 1.044.55 1.445.368.4.81.601 1.325.601H19.2c.516 0 .957-.2 1.324-.6.367-.402.551-.883.551-1.446V6.593c-.336.409-.727.78-1.172 1.112z"/></g><defs><clipPath id="kclip0"><path transform="translate(.076 .79)" d="M0 0h21v18H0z"/></clipPath></defs></symbol><symbol viewBox="0 0 19 25" id="mapa" xmlns="http://www.w3.org/2000/svg"><g clip-path="url(#lclip0)"><path d="M9.075.154c-4.97 0-9 4.173-9 9.32 0 5.148 6.134 14.68 9 14.68 2.867 0 9-9.532 9-14.68 0-5.147-4.029-9.32-9-9.32zm0 13.592c-2.616 0-4.737-2.196-4.737-4.906 0-2.71 2.12-4.906 4.737-4.906s4.738 2.196 4.738 4.906c0 2.71-2.121 4.906-4.738 4.906z"/></g><defs><clipPath id="lclip0"><path transform="translate(.075 .154)" d="M0 0h18v24H0z"/></clipPath></defs></symbol><symbol viewBox="0 0 17 12" id="oko" xmlns="http://www.w3.org/2000/svg"><path fill-rule="evenodd" clip-rule="evenodd" d="M8.756.572a8.493 8.493 0 00-7.9 5.331 8.493 8.493 0 007.9 5.331 8.493 8.493 0 007.901-5.33 8.493 8.493 0 00-7.9-5.332zm0 8.885c-1.982 0-3.59-1.592-3.59-3.554 0-1.961 1.608-3.554 3.59-3.554 1.983 0 3.592 1.593 3.592 3.554 0 1.962-1.61 3.554-3.592 3.554zM6.602 5.903a2.14 2.14 0 012.154-2.132 2.14 2.14 0 012.155 2.132 2.14 2.14 0 01-2.155 2.133 2.14 2.14 0 01-2.154-2.133z"/></symbol><symbol viewBox="0 0 22 22" id="phone" xmlns="http://www.w3.org/2000/svg"><path fill-rule="evenodd" clip-rule="evenodd" d="M17.73 13.777l3.313 3.32c.658.662.639 1.757-.044 2.442l-.946.929-.02-.018c-.4.313-.86.574-1.352.767-.459.179-.91.291-1.38.348-.216.023-5.226.493-11.442-5.736C1.362 11.32-.295 8 .143 4.366c.051-.453.163-.906.342-1.38.195-.497.456-.96.77-1.36l-.026-.025.933-.941C2.846-.026 3.94-.046 4.598.614l3.312 3.32c.658.661.64 1.756-.044 2.442l-.551.552-1.12 1.121a22.243 22.243 0 01.18.323l.003.006c.585 1.056 1.386 2.501 2.905 4.024 1.518 1.522 2.96 2.324 4.014 2.91l.33.183 1.669-1.672c.682-.685 1.775-.705 2.435-.046z"/></symbol><symbol viewBox="0 0 19 19" id="post" xmlns="http://www.w3.org/2000/svg"><path d="M12.175 9.173A2.676 2.676 0 119.5 6.498a2.68 2.68 0 012.675 2.675zM9.5.284C4.596.284.606 4.274.606 9.18c0 4.904 3.99 8.888 8.894 8.888a8.837 8.837 0 005.01-1.55l.028-.016-1.198-1.393-.022.011A7.07 7.07 0 019.5 16.24c-3.895 0-7.066-3.17-7.066-7.066 0-3.895 3.171-7.066 7.066-7.066 3.896 0 7.067 3.17 7.067 7.066 0 .507-.056 1.014-.168 1.521-.223.92-.863 1.198-1.348 1.16-.485-.04-1.053-.385-1.059-1.232V9.173a4.502 4.502 0 00-4.497-4.497 4.502 4.502 0 00-4.497 4.497 4.502 4.502 0 004.497 4.497 4.482 4.482 0 003.187-1.326 2.894 2.894 0 002.224 1.326 3.023 3.023 0 002.045-.596c.535-.407.93-.992 1.148-1.694.034-.112.1-.374.1-.374v-.01c.129-.564.19-1.126.19-1.823C18.395 4.275 14.404.284 9.5.284z"/></symbol><symbol viewBox="0 0 20 18" id="star" xmlns="http://www.w3.org/2000/svg"><path d="M14.49 16.779l-3.355-2.005a2.258 2.258 0 00-2.313-.002l-3.353 1.996c-.62.37-1.361-.18-1.202-.855l.88-3.735a2.258 2.258 0 00-.728-2.233L1.472 7.422c-.535-.458-.252-1.33.46-1.387l3.9-.327A2.258 2.258 0 007.717 4.35L9.237.813c.273-.643 1.21-.643 1.483 0l1.521 3.545a2.258 2.258 0 001.886 1.36l3.899.328c.712.055.995.928.46 1.387l-2.947 2.522a2.258 2.258 0 00-.729 2.234l.881 3.735c.16.675-.582 1.225-1.201.855z"/></symbol><symbol viewBox="0 0 10 6" id="upIcon" xmlns="http://www.w3.org/2000/svg"><path fill-rule="evenodd" clip-rule="evenodd" d="M9.67 5.652a.698.698 0 000-.985L5.734.725a.693.693 0 00-.548-.202.693.693 0 00-.508.204L.743 4.667a.697.697 0 00.984.985l3.481-3.485 3.478 3.485a.694.694 0 00.983 0z"/></symbol></svg>